<svg id="Layer_1" data-name="Layer 1" xmlns="http://www.w3.org/2000/svg" viewBox="0 0 500 500"><defs><style>.cls-1{fill:#ffe8aa;}.cls-2{fill:#ffb18a;}.cls-3{fill:#ffdcaa;}.cls-4{fill:#cd4027;}.cls-4,.cls-5,.cls-6,.cls-7,.cls-8,.cls-9{stroke:#000;stroke-miterlimit:10;stroke-width:3px;fill-rule:evenodd;}.cls-5{fill:#6167af;}.cls-6{fill:#4a2700;}.cls-7{fill:#4a2e00;}.cls-8{fill:#fcb13b;}.cls-9{fill:#fbcccc;}</style></defs><rect class="cls-1" width="500" height="500" rx="130.5"/><circle class="cls-2" cx="250" cy="250" r="205"/><circle class="cls-3" cx="250" cy="250" r="137.51"/><path class="cls-4" d="M264.38,166.88H344.6c4.84,8,20.6,35.68,30.42,63.9l1.66,77.44H123.32V229.81H264.38Z"/><path class="cls-5" d="M357.32,190a344,344,0,0,1,17.7,40.8l.42,16H297.71V190Z"/><path class="cls-6" d="M175.6,345.7a31.4,31.4,0,1,0-31.4-31.39A31.46,31.46,0,0,0,175.6,345.7Z"/><path class="cls-7" d="M306.7,345.7a31.4,31.4,0,1,0-31.39-31.39A31.46,31.46,0,0,0,306.7,345.7Z"/><path class="cls-8" d="M146.28,154.3H264.52v75.51H146.28Z"/><path class="cls-9" d="M175.6,325.93A11.62,11.62,0,1,0,164,314.31,11.69,11.69,0,0,0,175.6,325.93Z"/><path class="cls-9" d="M306.7,325.93a11.62,11.62,0,1,0-11.61-11.62A11.69,11.69,0,0,0,306.7,325.93Z"/></svg>